<svg xmlns="http://www.w3.org/2000/svg" width="640" height="420" viewBox="0 0 640 420"><rect width="640" height="420" fill="#dfe9d6"/><rect y="295" width="640" height="125" fill="#6aa45f"/><circle cx="320" cy="210" r="125" fill="#f8f8f4" stroke="#222" stroke-width="9"/><polygon points="320,145 365,175 348,228 292,228 275,175" fill="#222"/><g fill="#222"><polygon points="230,105 270,115 250,155 210,150 195,120"/><polygon points="410,105 445,125 430,160 390,150 375,115"/><polygon points="210,245 250,250 260,295 220,320 190,285"/><polygon points="430,245 470,255 460,300 420,320 390,285"/></g><path d="M250 155l25 20M365 175l25-25M292 228l-42 22M348 228l42 22" stroke="#222" stroke-width="7"/><text x="24" y="45" font-family="sans-serif" font-size="26">干扰样本：足球</text></svg>
